# xmcd
#
# Track frame offsets: 
#        150
#        20891
#        33186
#        49102
#        66120
#        84967
#        99502
#        115036
#        136140
#        145968
#        166949
#        189882
#        212668
#        230621
#        253937
#
# Disc length: 3552 seconds
#
# Revision: 0
# Processed by: cddbd v1.4PL0 Copyright (c) Steve Scherf et al.
# Submitted via: ExactAudioCopy v0.90b4
#
DISCID=c80dde0f
DTITLE=Taylor, James - Live
DYEAR=1900
DGENRE=
TTITLE0=Walking Man
TTITLE1=Riding on a railroad
TTITLE2=Something in the way she moves
TTITLE3=Sun on the moon
TTITLE4=Up on the roof
TTITLE5=Don't let me be lonely tonight
TTITLE6=She thinks I still care
TTITLE7=Copperline
TTITLE8=Slap leather
TTITLE9=Only one
TTITLE10=You make it easy
TTITLE11=Carolina in my mind
TTITLE12=I will follow
TTITLE13=You've got a friend
TTITLE14=That lonesome road
EXTD=
EXTT0=
EXTT1=
EXTT2=
EXTT3=
EXTT4=
EXTT5=
EXTT6=
EXTT7=
EXTT8=
EXTT9=
EXTT10=
EXTT11=
EXTT12=
EXTT13=
EXTT14=
PLAYORDER=
